<?xml version="1.0" standalone="no"?>
<!DOCTYPE svg PUBLIC "-//W3C//DTD SVG 20010904//EN"
 "http://www.w3.org/TR/2001/REC-SVG-20010904/DTD/svg10.dtd">
<svg version="1.0" xmlns="http://www.w3.org/2000/svg"
 width="13.000000pt" height="25.000000pt" viewBox="0 0 13.000000 25.000000"
 preserveAspectRatio="xMidYMid meet">
<metadata>
Created by potrace 1.16, written by Peter Selinger 2001-2019
</metadata>
<g transform="translate(0.000000,25.000000) scale(0.003226,-0.001873)"
fill="#593196" fill-opacity="0" stroke="#A991D4" stroke-width="350">
<path d="M4010 13344 c-8 -3 -44 -14 -80 -26 -349 -111 -828 -534 -1201 -1059
-93 -131 -317 -515 -440 -754 -163 -317 -288 -624 -483 -1189 -276 -799 -489
-1883 -601 -3060 -25 -258 -48 -472 -51 -475 -7 -7 -155 149 -401 422 l-197
217 -278 0 -278 0 0 -27 c0 -22 35 -65 166 -203 195 -205 287 -312 340 -395
34 -53 39 -67 39 -120 0 -53 -5 -67 -39 -120 -53 -83 -145 -190 -340 -395
-131 -138 -166 -181 -166 -202 l0 -28 278 0 278 0 197 218 c246 272 394 428
401 421 3 -3 26 -217 51 -475 112 -1177 325 -2261 601 -3060 259 -750 404
-1077 717 -1611 229 -392 420 -639 711 -920 268 -259 524 -426 749 -488 l47
-13 0 588 0 589 -92 64 c-330 230 -669 567 -958 952 -192 256 -302 443 -438
745 -400 887 -657 1947 -812 3354 -26 238 -24 242 125 245 112 2 195 60 195
136 0 76 -83 134 -195 136 -149 3 -151 7 -125 245 155 1407 412 2467 812 3354
136 302 246 489 438 745 289 385 628 722 958 952 l92 64 0 590 c0 324 -1 589
-2 588 -2 0 -10 -3 -18 -5z"/>
</g>
</svg>
