<?xml version="1.0" standalone="no"?>
<!DOCTYPE svg PUBLIC "-//W3C//DTD SVG 20010904//EN"
 "http://www.w3.org/TR/2001/REC-SVG-20010904/DTD/svg10.dtd">
<svg version="1.0" xmlns="http://www.w3.org/2000/svg"
 width="25.000000pt" height="13.000000pt" viewBox="0 0 25.000000 13.000000"
 preserveAspectRatio="xMidYMid meet">
<metadata>
Created by potrace 1.16, written by Peter Selinger 2001-2019
</metadata>
<g transform="translate(0.000000,13.000000) scale(0.001873,-0.003226)"
fill="#593196" fill-opacity="0" stroke="#A991D4" stroke-width="350">
<path d="M5930 3752 l0 -278 218 -197 c272 -246 428 -394 421 -401 -3 -3 -217
-26 -475 -51 -1177 -112 -2261 -325 -3060 -601 -750 -259 -1077 -404 -1611
-717 -392 -229 -639 -420 -920 -711 -259 -268 -426 -524 -488 -749 l-13 -47
588 0 589 0 64 93 c230 329 567 668 952 957 256 192 443 302 745 438 887 400
1947 657 3354 812 238 26 242 24 245 -125 5 -258 267 -258 272 0 3 149 7 151
245 125 1407 -155 2467 -412 3354 -812 302 -136 489 -246 745 -438 385 -289
722 -628 952 -957 l64 -93 589 0 588 0 -13 48 c-62 224 -229 480 -488 748
-281 291 -528 482 -920 711 -534 313 -861 458 -1611 717 -799 276 -1883 489
-3060 601 -258 25 -472 48 -475 51 -7 7 149 155 422 401 l217 197 0 278 0 278
-27 0 c-22 0 -65 -35 -203 -166 -205 -195 -312 -287 -395 -340 -53 -34 -67
-39 -120 -39 -53 0 -67 5 -120 39 -83 53 -190 145 -395 340 -138 131 -181 166
-202 166 l-28 0 0 -278z"/>
</g>
</svg>
